<svg width="98" height="113" viewBox="0 0 98 113" fill="none" xmlns="http://www.w3.org/2000/svg">
<path fill-rule="evenodd" clip-rule="evenodd" d="M49 0C76.0618 0 97.9997 12.9046 98 28.8232C98 44.742 77.8232 93.9648 77.8232 93.9648V110.683C77.8231 111.956 76.791 112.988 75.5176 112.988H59.502C60.9288 111.353 61.9578 108.844 62.8613 104.997C65.2074 95.0061 59.9565 81.191 56.9053 72.8057C62.3048 74.0252 68.3783 71.4184 69.6445 66.0273C70.918 60.6036 67.5535 55.1743 62.1299 53.9004C56.8089 52.6509 51.896 56.5321 50.5088 61.8008C44.1666 59.0053 32.9298 59.8903 28.4639 61.0938C24.3562 62.2019 37.4304 71.6268 39.7363 73.6445C42.0418 75.6624 35.869 85.7272 32.2422 96.126C29.8644 102.944 29.7391 109.37 33.5889 112.988H22.4824C21.209 112.988 20.1769 111.956 20.1768 110.683V93.9648C20.1768 93.9648 0 44.742 0 28.8232C0.000264608 12.9046 21.9382 1.21288e-06 49 0ZM49.8564 13.1055C49.7467 12.4672 48.8306 12.4672 48.7207 13.1055L46.1182 28.2471L36.6094 30.8613C36.0448 31.0168 36.0449 31.8182 36.6094 31.9736L46.1182 34.5879L48.7197 50.2002C48.8269 50.8422 49.7503 50.8422 49.8574 50.2002L52.459 34.5879L61.499 31.9717C62.0536 31.8109 62.0536 31.025 61.499 30.8643L52.459 28.2471L49.8564 13.1055Z" fill="url(#paint0_linear_16_323)"/>
<path d="M45.6924 67.8662C46.6473 67.8664 47.4217 68.6408 47.4219 69.5957C47.4219 70.5507 46.6474 71.325 45.6924 71.3252C44.7375 71.3249 43.9639 70.5507 43.9639 69.5957C43.964 68.6409 44.7376 67.8665 45.6924 67.8662Z" fill="url(#paint1_linear_16_323)"/>
<defs>
<linearGradient id="paint0_linear_16_323" x1="49" y1="7.52509e-07" x2="78.1118" y2="112.988" gradientUnits="userSpaceOnUse">
<stop offset="0.102798" stop-color="#AF431D"/>
<stop offset="1" stop-color="white"/>
</linearGradient>
<linearGradient id="paint1_linear_16_323" x1="49" y1="7.52509e-07" x2="78.1118" y2="112.988" gradientUnits="userSpaceOnUse">
<stop offset="0.102798" stop-color="#AF431D"/>
<stop offset="1" stop-color="white"/>
</linearGradient>
</defs>
</svg>
