<svg width="170" height="196" viewBox="0 0 170 196" fill="none" xmlns="http://www.w3.org/2000/svg">
<path fill-rule="evenodd" clip-rule="evenodd" d="M85 0C131.944 0 170 22.3858 170 50C170 77.6142 135 163 135 163V192C135 194.209 133.209 196 131 196H103.22C105.694 193.164 107.478 188.811 109.045 182.139C113.115 164.807 104.006 140.841 98.7129 126.295C108.079 128.411 118.615 123.89 120.812 114.538C123.021 105.129 117.185 95.7099 107.776 93.5C98.5461 91.3325 90.0226 98.0655 87.6162 107.205C76.6142 102.356 57.1228 103.891 49.376 105.979C42.2493 107.9 64.9301 124.25 68.9307 127.75C72.9301 131.25 62.222 148.711 55.9307 166.75C51.8062 178.576 51.5886 189.724 58.2656 196H39C36.7909 196 35 194.209 35 192V163C35 163 0 77.6142 0 50C0 22.3858 38.0558 0 85 0ZM86.4854 22.7344C86.2948 21.6272 84.7051 21.6271 84.5146 22.7344L80 49L63.5059 53.5352C62.5264 53.8047 62.5265 55.1942 63.5059 55.4639L80 60L84.5137 87.0811C84.6994 88.1952 86.3006 88.1952 86.4863 87.0811L91 60L106.682 55.46C107.644 55.1812 107.644 53.8177 106.682 53.5391L91 49L86.4854 22.7344Z" fill="url(#paint0_linear_86_560)"/>
<path d="M79.2627 117.728C80.9193 117.728 82.2625 119.071 82.2627 120.728C82.2626 122.384 80.9194 123.727 79.2627 123.728C77.606 123.727 76.2628 122.384 76.2627 120.728C76.2629 119.071 77.606 117.728 79.2627 117.728Z" fill="url(#paint1_linear_86_560)"/>
<defs>
<linearGradient id="paint0_linear_86_560" x1="85" y1="1.30537e-06" x2="135.5" y2="196" gradientUnits="userSpaceOnUse">
<stop offset="0.409309" stop-color="#212121"/>
<stop offset="1" stop-color="#AF431D"/>
</linearGradient>
<linearGradient id="paint1_linear_86_560" x1="85" y1="1.30537e-06" x2="135.5" y2="196" gradientUnits="userSpaceOnUse">
<stop offset="0.409309" stop-color="#212121"/>
<stop offset="1" stop-color="#AF431D"/>
</linearGradient>
</defs>
</svg>
